PathFileType	4	(X/Y/Z)	\\147.46.242.158\로컬 디스크 (e)\MOCAP Data\Iguana Capture\iguana\Project 2\Capture day 6 after broken\Session 1\Take06.trc
DataRate	CameraRate	NumFrames	NumMarkers	Units	OrigDataRate	OrigDataStartFrame	OrigNumFrames
120.0	120.0	8	23	mm	120.0	118	8064
Frame#	Time	ana:head1			ana:head2			ana:bone1			ana:bone2			ana:bone3			ana:tail1			ana:tail2			ana:tail3			ana:tail4			ana:Rforefoot1			ana:Rforefoot2			ana:Rforefoot3			ana:Lforefoot1			ana:Lforefoot2			ana:Lforefoot3			ana:RhindLeg1			ana:RhindLeg2			ana:RhindLeg3			ana:RhindLeg4			ana:LhindLeg1			ana:LhindLeg2			ana:LhindLeg3			ana:LhindLeg4			
		X1	Y1	Z1	X2	Y2	Z2	X3	Y3	Z3	X4	Y4	Z4	X5	Y5	Z5	X6	Y6	Z6	X7	Y7	Z7	X8	Y8	Z8	X9	Y9	Z9	X10	Y10	Z10	X11	Y11	Z11	X12	Y12	Z12	X13	Y13	Z13	X14	Y14	Z14	X15	Y15	Z15	X16	Y16	Z16	X17	Y17	Z17	X18	Y18	Z18	X19	Y19	Z19	X20	Y20	Z20	X21	Y21	Z21	X22	Y22	Z22	X23	Y23	Z23	

6073	50.600	77.95619	-345.11038	67.70903	88.16827	-348.00073	69.55322	110.90732	-352.42889	61.50670	137.31789	-352.44418	57.38734	157.31490	-332.77338	44.36936	147.93408	-305.06641	40.97950	129.02019	-272.05646	47.36325	120.37053	-240.70801	53.52302	115.10823	-217.91194	55.66039	104.26044	-348.98920	38.04892	105.38885	-343.98074	28.60698	99.68694	-359.88882	15.18193	102.03765	-368.00009	42.20940	108.90006	-377.84946	33.37417	101.48175	-377.44397	17.61654	144.76868	-331.69855	38.39931	125.04288	-331.13464	37.01662	134.00414	-319.53723	25.81148	128.46588	-322.79071	17.01478	167.39227	-335.63007	34.49477	177.88727	-350.65680	28.58205	187.00372	-362.66635	14.51234	187.84363	-376.25919	8.01213	
6074	50.608	75.96241	-336.90842	66.71939	86.05989	-339.72226	68.47065	108.75251	-344.68866	60.77803	135.26324	-346.35318	56.96832	155.75938	-329.38293	41.70839	144.13583	-303.92938	35.08099	115.36508	-280.26370	40.07572	85.60409	-264.83362	48.68974	59.44531	-255.26044	52.82624	102.75925	-344.63831	36.82129	103.06963	-341.34418	28.41702	99.23837	-359.66592	15.00022	99.55029	-362.22540	43.45120	106.42072	-372.99011	35.39968	100.63146	-375.84024	19.27533	142.82947	-329.43817	35.92492	123.00401	-329.22812	35.41418	133.16382	-318.11026	24.18172	125.31107	-321.56689	17.80007	165.98036	-333.75653	32.61020	176.71811	-348.57162	27.39301	186.35297	-361.31821	14.17810	187.42145	-375.26883	8.53778	
6075	50.617	73.55193	-329.42010	65.75060	84.00151	-331.41916	66.82522	106.41502	-336.73306	59.77784	132.77223	-340.03555	56.83997	153.64772	-326.09448	38.77668	138.95094	-304.20898	27.01918	102.48103	-296.73621	29.76233	66.61247	-304.29645	36.85374	38.71054	-313.78159	38.16309	101.59091	-340.90729	36.58078	98.78792	-336.73300	30.56416	98.14172	-358.11707	14.49734	96.72123	-355.66040	44.34665	103.83903	-367.38501	37.39205	99.08949	-372.51547	21.37819	140.82072	-327.90018	32.90166	123.05702	-330.07553	31.40833	131.06793	-315.81543	22.22081	125.48548	-324.45630	13.90856	163.99388	-331.64771	30.48479	175.17015	-345.97537	25.90104	185.33504	-359.00604	13.44925	186.92137	-373.66412	9.21049	
6076	50.625	71.37145	-322.24948	63.97622	81.74023	-324.29962	65.32256	104.34340	-329.96625	58.75087	130.08751	-334.10733	55.77539	151.08379	-323.66592	34.93618	134.79869	-306.30209	17.62754	95.28989	-311.52109	16.86577	66.67188	-338.14609	22.32291	52.39194	-363.63812	22.29023	100.82681	-337.80228	37.41500	97.33290	-335.34308	32.92513	96.58289	-357.38962	14.70211	93.80347	-350.45078	46.19543	100.74101	-363.24316	40.67262	95.37779	-370.09045	25.70630	139.11182	-327.96848	29.22111	119.99656	-332.04340	27.69977	129.71744	-315.22974	21.30120	125.67111	-326.62363	12.40019	160.87236	-330.58301	27.58316	173.00923	-344.37567	24.56621	183.24316	-357.28439	12.27970	185.50452	-372.68860	9.84655	
6077	50.633	69.64455	-316.53250	62.29274	79.79230	-319.18921	64.25497	102.36111	-325.02975	57.95997	128.82903	-328.98218	53.87278	149.49117	-322.75980	32.00337	134.70529	-307.61752	12.26050	93.56355	-316.18915	11.48844	75.49308	-351.51813	18.91113	86.02654	-389.05591	15.88990	100.34827	-335.36661	39.09381	90.82336	-337.65759	30.10083	95.15571	-358.79636	16.69363	91.20282	-347.04306	49.38735	97.16146	-360.92276	46.70099	89.31518	-370.01624	34.93972	136.85588	-330.29306	25.98203	119.69086	-333.10446	25.14202	129.10576	-316.49686	21.55234	125.83183	-327.82355	13.68273	158.21185	-332.01981	25.56181	170.76805	-344.46075	22.93936	181.32776	-358.01984	11.36666	183.94843	-373.09790	9.45437	
6078	50.642	68.67782	-314.68185	63.33760	79.02097	-317.61084	65.33092	101.29007	-324.02100	59.42971	127.64806	-328.50256	55.39220	148.88972	-323.58945	33.05010	135.71048	-308.57266	11.37577	94.89003	-313.53534	10.25682	81.37669	-347.73108	25.51968	103.20092	-374.65442	39.09680	100.03664	-333.64365	41.38705	90.50801	-334.39633	30.52631	91.74345	-358.83783	20.99572	89.04610	-345.28174	51.59532	92.61223	-360.05298	51.66195	81.17068	-367.86111	43.64454	135.56067	-333.20840	25.38083	120.18550	-332.97827	25.74994	129.21873	-319.23712	22.68659	126.02383	-328.48062	16.88769	156.89519	-333.33398	26.70921	169.28487	-345.96719	23.70309	180.39243	-358.99634	12.28973	182.91457	-373.56348	9.46926	
6079	50.650	68.35957	-315.55652	67.09062	78.71587	-318.59921	68.98944	100.88475	-325.33902	62.92572	126.12312	-330.90314	59.73299	149.16524	-325.40103	36.57720	139.64186	-309.85083	13.07572	99.17630	-308.85895	8.39030	82.84759	-336.86960	28.66416	100.84976	-353.64835	55.45724	99.77325	-332.67673	44.06456	90.70054	-332.90891	31.91414	91.58254	-354.92844	19.80791	87.08234	-344.83353	53.82007	87.47933	-359.91116	53.93598	73.76141	-363.30826	46.09908	134.42967	-334.73416	28.23643	121.47914	-331.47849	29.70292	130.04221	-323.07080	24.41631	126.30332	-329.01944	21.14655	156.64136	-335.12396	30.28165	168.95110	-348.81955	27.16280	180.14331	-360.10007	14.53763	182.62006	-374.11041	10.43290	
6080	50.658	68.23944	-317.62656	72.11043	78.52880	-320.38260	73.90923	100.85474	-326.83264	67.24305	126.14291	-333.15192	64.05256	150.46489	-328.24188	41.06867	146.11142	-311.76633	16.41072	107.46411	-303.55014	6.68452	82.47630	-326.47134	24.32509	91.63276	-347.20441	50.93695	99.43945	-332.50919	46.89618	91.47495	-333.41708	34.38541	93.89597	-348.44556	18.00006	86.11947	-345.32092	56.99329	84.13336	-359.93073	55.43082	70.79240	-361.55093	45.48663	133.45375	-334.82404	34.32549	123.31535	-329.68643	35.39359	131.56198	-327.61819	26.45383	126.72649	-329.86456	25.59081	157.16339	-338.50046	35.13791	168.98405	-352.09604	30.71138	180.27255	-361.39505	17.05035	182.98413	-375.06030	11.70557	
